<svg width="256" height="256" viewBox="0 0 256 256" fill="none" xmlns="http://www.w3.org/2000/svg">
<g clip-path="url(#clip0_2033_16)">
<path d="M61.6133 200.623H60.4062" stroke="black" stroke-width="1.5" stroke-linecap="round" stroke-linejoin="round"/>
</g>
<rect x="59.0957" y="196.898" width="3.82812" height="3.82812" stroke="#E0E0E0"/>
<path d="M25 93.392C25 37.0712 37.0712 25 93.392 25H162.608C218.929 25 231 37.0712 231 93.392V162.608C231 218.929 218.929 231 162.608 231H93.392C37.0712 231 25 218.929 25 162.608V93.392Z" fill="white" stroke="#E0E0E0" stroke-width="2"/>
<g clip-path="url(#clip1_2033_16)">
<path fill-rule="evenodd" clip-rule="evenodd" d="M89.9107 79.1826V95.8124C89.9107 98.479 87.749 100.641 85.0826 100.641C82.416 100.641 80.2544 98.479 80.2544 95.8124V74.3547C80.2544 73.8442 80.3336 73.3523 80.4804 72.8905C81.1004 70.9397 82.9264 69.5264 85.0826 69.5264H170.916C172.583 69.5264 174.052 70.3708 174.92 71.655C175.44 72.4256 175.744 73.3545 175.744 74.3545V95.8124C175.744 98.479 173.583 100.641 170.916 100.641C168.25 100.641 166.088 98.479 166.088 95.8124V79.1826H133.9V176.818H146.822C149.489 176.818 151.65 178.98 151.65 181.646C151.65 184.313 149.489 186.474 146.822 186.474H109.27C106.603 186.474 104.442 184.313 104.442 181.646C104.442 178.98 106.603 176.818 109.27 176.818H122.098V79.1826H89.9107Z" fill="#212121"/>
</g>
<defs>
<clipPath id="clip0_2033_16">
<rect x="58.5957" y="196.398" width="4.82812" height="4.82812" fill="white"/>
</clipPath>
<clipPath id="clip1_2033_16">
<rect width="160.937" height="160.937" fill="white" transform="translate(47.5312 47.5312)"/>
</clipPath>
</defs>
</svg>
